<svg width="36" height="36" viewBox="0 0 36 36" fill="none" xmlns="http://www.w3.org/2000/svg">
<path d="M4.5 18C4.5 12.8574 4.5 10.2861 5.63817 8.38718C6.31453 7.25874 7.25874 6.31453 8.38718 5.63817C10.2861 4.5 12.8574 4.5 18 4.5V4.5C23.1426 4.5 25.7139 4.5 27.6128 5.63817C28.7413 6.31453 29.6855 7.25874 30.3618 8.38718C31.5 10.2861 31.5 12.8574 31.5 18V18C31.5 23.1426 31.5 25.7139 30.3618 27.6128C29.6855 28.7413 28.7413 29.6855 27.6128 30.3618C25.7139 31.5 23.1426 31.5 18 31.5V31.5C12.8574 31.5 10.2861 31.5 8.38718 30.3618C7.25874 29.6855 6.31453 28.7413 5.63817 27.6128C4.5 25.7139 4.5 23.1426 4.5 18V18Z" stroke="#1E1000" stroke-width="4"/>
<circle cx="24.75" cy="11.25" r="2.25" fill="#1E1000"/>
<circle cx="18" cy="18" r="4.5" stroke="#1E1000" stroke-width="3"/>
</svg>
