<svg width="153" height="49" viewBox="0 0 153 49" fill="none" xmlns="http://www.w3.org/2000/svg">
<path fill-rule="evenodd" clip-rule="evenodd" d="M60.2303 17.7208C59.75 18.7651 59.75 19.9531 59.75 22.3292V29.7499C59.75 33.0497 59.75 34.6996 60.7751 35.7248C61.7872 36.7369 63.4083 36.7497 66.625 36.7499V28C66.625 26.4812 67.8562 25.25 69.375 25.25H74.625C76.1438 25.25 77.375 26.4812 77.375 28V36.7499C80.5917 36.7497 82.2128 36.7369 83.2249 35.7248C84.25 34.6996 84.25 33.0497 84.25 29.7499V22.3292C84.25 19.9531 84.25 18.7651 83.7697 17.7208C83.2894 16.6765 82.3874 15.9033 80.5833 14.357L78.8333 12.857C75.5725 10.062 73.9421 8.66455 72 8.66455C70.0579 8.66455 68.4275 10.062 65.1667 12.857L63.4167 14.357C61.6126 15.9033 60.7106 16.6765 60.2303 17.7208ZM75.375 36.7499V28C75.375 27.5858 75.0392 27.25 74.625 27.25H69.375C68.9608 27.25 68.625 27.5858 68.625 28V36.7499H75.375Z" fill="#E0DBCE"/>
<path d="M1.824 19.432V14.6H19.392L8.8 32.36H18.24V37H0.288L10.72 19.432H1.824ZM25.7958 37V32.552H37.0918V37H25.7958ZM25.7958 19.048V14.6H37.0918V19.048H25.7958ZM25.7958 27.4V23.048H36.4518V27.4H25.7958ZM22.2118 14.6H27.3958V37H22.2118V14.6ZM45.077 19.24V14.6H55.093V19.24H45.077ZM45.077 28.008V23.656H54.773V28.008H45.077ZM41.493 14.6H46.677V37H41.493V14.6ZM103.418 14.6H108.634V38.12L93.1458 24.392V37H87.9618V13.48L103.418 27.208V14.6ZM125.944 14.6H132.152L124.312 27.88V37H118.808V27.912L110.968 14.6H117.176L121.56 23.016L125.944 14.6ZM134.826 32.68L135.21 28.552H146.314L146.666 32.68H134.826ZM140.682 22.824L137.546 30.056L137.802 31.24L135.018 37H128.905L140.682 13.192L152.49 37H146.346L143.658 31.464L143.85 30.088L140.682 22.824Z" fill="#E0DBCE"/>
</svg>
